<svg width="65" height="21" viewBox="0 0 65 21" fill="none" xmlns="http://www.w3.org/2000/svg">
<rect y="0.105896" width="64.4236" height="20.8941" rx="3.48235" fill="#FFE195"/>
<path d="M32.3928 15.153H30.7628V11.8243H27.7085V15.153H26.0732V7.44065H27.7085V10.4633H30.7628V7.44065H32.3928V15.153ZM35.827 9.25531V15.153H34.218V9.25531H35.827ZM35.0251 6.94478C35.2643 6.94478 35.47 7.00105 35.6423 7.11359C35.8147 7.22261 35.9008 7.42834 35.9008 7.73078C35.9008 8.02971 35.8147 8.2372 35.6423 8.35325C35.47 8.46579 35.2643 8.52206 35.0251 8.52206C34.7825 8.52206 34.575 8.46579 34.4027 8.35325C34.2339 8.2372 34.1495 8.02971 34.1495 7.73078C34.1495 7.42834 34.2339 7.22261 34.4027 7.11359C34.575 7.00105 34.7825 6.94478 35.0251 6.94478ZM41.6771 12.5945H40.39L40.121 7.44065H41.9462L41.6771 12.5945ZM40.0999 14.3986C40.0999 14.068 40.1895 13.8359 40.3689 13.7023C40.5518 13.5686 40.7716 13.5018 41.0283 13.5018C41.278 13.5018 41.4925 13.5686 41.6719 13.7023C41.8547 13.8359 41.9462 14.068 41.9462 14.3986C41.9462 14.7151 41.8547 14.9437 41.6719 15.0844C41.4925 15.225 41.278 15.2954 41.0283 15.2954C40.7716 15.2954 40.5518 15.225 40.3689 15.0844C40.1895 14.9437 40.0999 14.7151 40.0999 14.3986Z" fill="#916800"/>
</svg>
