<svg width="101" height="101" viewBox="0 0 101 101" fill="none" xmlns="http://www.w3.org/2000/svg">
<mask id="mask0_217_24" style="mask-type:alpha" maskUnits="userSpaceOnUse" x="0" y="0" width="101" height="101">
<rect width="101" height="101" fill="#D9D9D9"/>
</mask>
<g mask="url(#mask0_217_24)">
<path d="M12.625 88.375V67.3333H29.4583L46.2917 50.5V37.0333C43.7667 36.1215 41.7326 34.5953 40.1896 32.4547C38.6465 30.3168 37.875 27.9153 37.875 25.25C37.875 21.7431 39.1024 18.7622 41.5573 16.3073C44.0122 13.8524 46.9931 12.625 50.5 12.625C54.0069 12.625 56.9879 13.8524 59.4427 16.3073C61.8976 18.7622 63.125 21.7431 63.125 25.25C63.125 27.9153 62.3535 30.3168 60.8104 32.4547C59.2674 34.5953 57.2333 36.1215 54.7083 37.0333V50.5L71.5417 67.3333H88.375V88.375H67.3333V75.5396L50.5 58.7062L33.6667 75.5396V88.375H12.625Z" fill="#717BD2"/>
</g>
</svg>
