<svg width="516" height="556" viewBox="0 0 516 556" fill="none" xmlns="http://www.w3.org/2000/svg">
<rect x="125.697" y="63.5401" width="256.457" height="489.313" rx="39.3339" fill="white" stroke="black" stroke-width="6.29342"/>
<rect x="222.459" y="76.127" width="63.7209" height="15.7335" rx="7.86677" fill="black"/>
<rect x="196.498" y="526.106" width="114.855" height="3.14671" fill="black"/>
<rect x="166.604" y="131.194" width="7.86677" height="217.91" fill="#D9D9D9"/>
<rect x="222.459" y="131.194" width="7.86677" height="84.9611" fill="#D9D9D9"/>
<rect x="354.737" y="296.942" width="7.86677" height="217.91" transform="rotate(105 354.737 296.942)" fill="#D9D9D9"/>
<rect x="257.69" y="395.078" width="7.86677" height="119.882" transform="rotate(105 257.69 395.078)" fill="#D9D9D9"/>
<path d="M262.726 296.012C269.093 291.647 277.722 296.353 277.5 304.07L276.208 348.993C276.005 356.036 268.437 360.383 262.252 357.009L226.477 337.498C220.291 334.125 219.847 325.409 225.659 321.424L262.726 296.012Z" fill="black"/>
<circle cx="317.253" cy="215.762" r="34.2205" stroke="#D0D0D0" stroke-width="6.29342"/>
<path d="M384.915 6.11269C447.063 -10.4076 510.783 21.8462 501.737 120.968" stroke="#B85FBA" stroke-width="2.36003"/>
<path d="M17.9228 376.638C0.878085 397.485 -17.0057 451.765 47.8165 502.113" stroke="#B85FBA" stroke-width="2.36003"/>
<path d="M472.714 350.497L474.281 374.375L474.292 374.536L474.345 374.688L482.245 397.276L460.782 386.693L460.638 386.622L460.48 386.592L436.968 382.14L456.864 368.844L456.998 368.754L457.102 368.633L472.714 350.497Z" stroke="#BD6627" stroke-width="2.36003"/>
<circle cx="502.523" cy="229.529" r="12.1935" stroke="#69B1C0" stroke-width="2.36003"/>
<circle cx="430.148" cy="173.675" r="12.1935" stroke="#543DAE" stroke-width="2.36003"/>
</svg>
