<svg width="185" height="185" viewBox="0 0 185 185" fill="none" xmlns="http://www.w3.org/2000/svg">
<mask id="mask0_217_18" style="mask-type:alpha" maskUnits="userSpaceOnUse" x="0" y="0" width="185" height="185">
<rect width="184.846" height="184.846" fill="#D9D9D9"/>
</mask>
<g mask="url(#mask0_217_18)">
<path d="M92.4233 169.442C81.8974 169.442 71.9491 167.419 62.5785 163.373C53.2078 159.332 45.0258 153.812 38.0325 146.814C31.034 139.82 25.5143 131.638 21.4734 122.268C17.4273 112.897 15.4043 102.949 15.4043 92.4229C15.4043 81.7685 17.4273 71.7894 21.4734 62.4855C25.5143 53.1765 31.034 45.0253 38.0325 38.032C45.0258 31.0335 53.2078 25.5113 62.5785 21.4652C71.9491 17.4243 81.8974 15.4038 92.4233 15.4038C103.078 15.4038 113.057 17.4243 122.361 21.4652C131.67 25.5113 139.821 31.0335 146.814 38.032C153.813 45.0253 159.332 53.1765 163.373 62.4855C167.419 71.7894 169.442 81.7685 169.442 92.4229C169.442 102.949 167.419 112.897 163.373 122.268C159.332 131.638 153.813 139.82 146.814 146.814C139.821 153.812 131.67 159.332 122.361 163.373C113.057 167.419 103.078 169.442 92.4233 169.442ZM92.4233 153.653C95.7608 149.032 98.649 144.218 101.088 139.212C103.527 134.206 105.517 128.879 107.057 123.23H77.7897C79.3301 128.879 81.3198 134.206 83.7587 139.212C86.1976 144.218 89.0858 149.032 92.4233 153.653ZM72.3984 150.572C70.0878 146.336 68.0674 141.938 66.337 137.379C64.6015 132.824 63.1561 128.108 62.0008 123.23H39.2802C43.0028 129.649 47.6547 135.233 53.2361 139.982C58.8225 144.732 65.2099 148.262 72.3984 150.572ZM112.448 150.572C119.637 148.262 126.022 144.732 131.603 139.982C137.189 135.233 141.844 129.649 145.566 123.23H122.846C121.691 128.108 120.248 132.824 118.517 137.379C116.782 141.938 114.759 146.336 112.448 150.572ZM32.7336 107.827H58.9201C58.535 105.259 58.2449 102.723 58.0497 100.217C57.8598 97.7166 57.7648 95.1185 57.7648 92.4229C57.7648 89.7272 57.8598 87.1291 58.0497 84.6285C58.2449 82.1228 58.535 79.5863 58.9201 77.019H32.7336C32.0918 79.5863 31.6091 82.1228 31.2856 84.6285C30.9673 87.1291 30.8081 89.7272 30.8081 92.4229C30.8081 95.1185 30.9673 97.7166 31.2856 100.217C31.6091 102.723 32.0918 105.259 32.7336 107.827ZM74.3239 107.827H110.523C110.908 105.259 111.198 102.723 111.393 100.217C111.583 97.7166 111.678 95.1185 111.678 92.4229C111.678 89.7272 111.583 87.1291 111.393 84.6285C111.198 82.1228 110.908 79.5863 110.523 77.019H74.3239C73.9388 79.5863 73.6512 82.1228 73.4613 84.6285C73.2661 87.1291 73.1686 89.7272 73.1686 92.4229C73.1686 95.1185 73.2661 97.7166 73.4613 100.217C73.6512 102.723 73.9388 105.259 74.3239 107.827ZM125.927 107.827H152.113C152.755 105.259 153.238 102.723 153.561 100.217C153.879 97.7166 154.039 95.1185 154.039 92.4229C154.039 89.7272 153.879 87.1291 153.561 84.6285C153.238 82.1228 152.755 79.5863 152.113 77.019H125.927C126.312 79.5863 126.599 82.1228 126.789 84.6285C126.984 87.1291 127.082 89.7272 127.082 92.4229C127.082 95.1185 126.984 97.7166 126.789 100.217C126.599 102.723 126.312 105.259 125.927 107.827ZM122.846 61.6152H145.566C141.844 55.197 137.189 49.6131 131.603 44.8636C126.022 40.1141 119.637 36.584 112.448 34.2735C114.759 38.5095 116.782 42.9047 118.517 47.4591C120.248 52.0187 121.691 56.7374 122.846 61.6152ZM77.7897 61.6152H107.057C105.517 55.9672 103.527 50.64 101.088 45.6338C98.649 40.6275 95.7608 35.8139 92.4233 31.1927C89.0858 35.8139 86.1976 40.6275 83.7587 45.6338C81.3198 50.64 79.3301 55.9672 77.7897 61.6152ZM39.2802 61.6152H62.0008C63.1561 56.7374 64.6015 52.0187 66.337 47.4591C68.0674 42.9047 70.0878 38.5095 72.3984 34.2735C65.2099 36.584 58.8225 40.1141 53.2361 44.8636C47.6547 49.6131 43.0028 55.197 39.2802 61.6152Z" fill="#B9885C"/>
</g>
</svg>
