<svg width="55" height="55" viewBox="0 0 55 55" fill="none" xmlns="http://www.w3.org/2000/svg">
<rect width="55" height="55" rx="8" fill="url(#paint0_linear_160_5)"/>
<path d="M27 8C16.55 8 8 16.55 8 27C8 30.42 8.95148 33.65 10.4715 36.5L8 46L17.8785 43.7215C20.7285 45.2415 23.77 46 27 46C37.45 46 46 37.45 46 27C46 21.87 44.0993 17.1207 40.4893 13.5107C36.8793 9.90074 32.13 8 27 8ZM27 11.8C30.99 11.8 34.7885 13.3215 37.8285 16.1715C40.6785 19.2115 42.2 23.01 42.2 27C42.2 35.36 35.36 42.2 27 42.2C24.53 42.2 21.8685 41.63 19.7785 40.3L18.45 39.5393L17.1215 39.9215L13.3215 40.8715L14.2715 37.45L14.65 35.9285L13.8893 34.6C12.5593 32.32 11.8 29.66 11.8 27C11.8 18.64 18.64 11.8 27 11.8ZM20.35 18.2607C19.97 18.2607 19.4015 18.2585 19.0215 18.8285C18.4515 19.3985 17.3107 20.5415 17.3107 22.8215C17.3107 25.1015 19.0207 27.3807 19.2107 27.7607C19.5907 28.1407 22.6285 33.0785 27.3785 34.9785C31.3685 36.4985 32.1285 36.1215 33.0785 36.1215C34.0285 35.9315 35.9307 34.9793 36.3107 33.8393C36.6907 32.6993 36.6885 31.7485 36.8785 31.1785C36.6885 30.9885 36.4985 30.8007 35.9285 30.6107C35.5485 30.4207 33.27 29.2793 32.7 29.0893C32.13 28.8993 31.9407 28.7085 31.5607 29.2785C31.1807 29.8485 30.2293 30.7985 30.0393 31.1785C29.8493 31.5585 29.6593 31.5615 29.0893 31.3715C28.7093 31.1815 27.1893 30.7993 25.2893 29.0893C23.7693 27.9493 22.8185 26.4307 22.6285 25.8607C22.2485 25.4807 22.6315 25.1007 22.8215 24.9107L23.5785 24.15C23.7685 23.96 23.7707 23.5793 23.9607 23.3893C24.1507 23.1993 24.1507 23.0085 23.9607 22.6285C23.7707 22.2485 22.8193 19.9715 22.4393 19.0215C22.0593 18.2615 21.68 18.2607 21.3 18.2607H20.35Z" fill="white"/>
<defs>
<linearGradient id="paint0_linear_160_5" x1="27.5" y1="0" x2="27.5" y2="55" gradientUnits="userSpaceOnUse">
<stop stop-color="#1ECA40" stop-opacity="0.54"/>
<stop offset="1" stop-color="#1ECA40"/>
</linearGradient>
</defs>
</svg>
